<svg xmlns="http://www.w3.org/2000/svg" width="370.2425537109375" height="372.8213806152344" viewBox="-80.74211120605469 -102.79022216796875 370.2425537109375 372.8213806152344"><title>Neo4j Graph Visualization</title><desc>Created using Neo4j (http://www.neo4j.com/)</desc><g class="layer relationships"><g class="relationship" transform="translate(-12.82321926790264 241.0311654927414) rotate(301.0584711371249)"><path class="outline" fill="#A5ABB6" stroke="none" d="M 21.40063509461097,12.933012701892217 L 21.90063509461097,12.06698729810778 A 81.42404760237933 81.42404760237933 0 0 0 30.697257073792315,16.460188804610723 L 30.30529176671422,17.380168803331983 A 82.42404760237933 82.42404760237933 0 0 1 21.40063509461097,12.933012701892217 Z M 90.92940975283663,18.958962272665545 L 90.58586012526146,18.01982774907856 A 81.42404760237933 81.42404760237933 0 0 0 99.59922175146127,14.09043976661818 L 98.23648320143444,11.417811164610267 L 106.06247824781754,11.356154583556897 L 101.41620648483037,17.653944569295398 L 100.05346793480354,14.981315967287484 A 82.42404760237933 82.42404760237933 0 0 1 90.92940975283663,18.958962272665545"/><text text-anchor="middle" pointer-events="none" font-size="8px" fill="#000000" x="60.479888669322165" y="26.447974748657103" font-family="sans-serif">PublicTransport</text></g><g class="relationship" transform="translate(53.38610063992282 131.0946388728974) rotate(375.3941842502352)"><path class="outline" fill="#A5ABB6" stroke="none" d="M 25 0.5 L 40.2960416159355 0.5 L 40.2960416159355 -0.5 L 25 -0.5 Z M 59.6319791159355 0.5 L 74.928020731871 0.5 L 74.928020731871 3.5 L 81.928020731871 0 L 74.928020731871 -3.5 L 74.928020731871 -0.5 L 59.6319791159355 -0.5 Z"/><text text-anchor="middle" pointer-events="none" font-size="8px" fill="#000000" x="49.9640103659355" y="3" font-family="sans-serif">trek</text></g><g class="relationship" transform="translate(156.47779572545468 159.47956483769713) rotate(261.74729622803335)"><path class="outline" fill="#A5ABB6" stroke="none" d="M 25 0.5 L 54.71962579984057 0.5 L 54.71962579984057 -0.5 L 25 -0.5 Z M 74.05556329984057 0.5 L 103.77518909968114 0.5 L 103.77518909968114 3.5 L 110.77518909968114 0 L 103.77518909968114 -3.5 L 103.77518909968114 -0.5 L 74.05556329984057 -0.5 Z"/><text text-anchor="middle" pointer-events="none" font-size="8px" fill="#000000" x="64.38759454984057" y="3" transform="rotate(180 64.38759454984057 0)" font-family="sans-serif">trek</text></g><g class="relationship" transform="translate(53.38610063992282 131.0946388728974) rotate(333.94896112257595)"><path class="outline" fill="#A5ABB6" stroke="none" d="M 24.018736134675446,-6.953439040707552 L 24.277555179777966,-5.987513214418485 A 160.91532706138585 160.91532706138585 0 0 1 54.23862437384272,-11.045614229170923 L 54.165996847852824,-12.042973363318993 A 161.91532706138585 161.91532706138585 0 0 0 24.018736134675446,-6.953439040707552 Z M 73.54864753838976,-12.291017783332848 L 73.501566504095,-11.292126710087274 A 160.91532706138585 160.91532706138585 0 0 1 103.58226215689534,-7.002394530734613 L 102.88021425930077,-4.085696269089601 L 110.50489941699948,-5.850399146621446 L 104.51832602035478,-10.891325546261298 L 103.81627812276021,-7.974627284616285 A 161.91532706138585 161.91532706138585 0 0 0 73.54864753838976,-12.291017783332848"/><text text-anchor="middle" pointer-events="none" font-size="8px" fill="#000000" x="63.860005023896875" y="-8.957354204324048" font-family="sans-serif">trek</text></g><g class="relationship" transform="translate(174.5004800124644 71.88959797205194) rotate(325.0908654011637)"><path class="outline" fill="#A5ABB6" stroke="none" d="M 24.018736134675446,-6.953439040707552 L 24.277555179777966,-5.987513214418485 A 101.4424442112105 101.4424442112105 0 0 1 39.289170435499166,-8.819048000259755 L 39.17833299092341,-9.812886548958645 A 102.4424442112105 102.4424442112105 0 0 0 24.018736134675446,-6.953439040707552 Z M 58.57743919554432,-10.127725315091851 L 58.49891073466956,-9.13081344294234 A 101.4424442112105 101.4424442112105 0 0 1 73.59450487408044,-6.787905120490384 L 72.91249114708441,-3.86645731568726 L 80.5248853731204,-5.683447724966854 L 74.50385651007514,-10.683168860227884 L 73.8218427830791,-7.7617210554247595 A 102.4424442112105 102.4424442112105 0 0 0 58.57743919554432,-10.127725315091851"/><text text-anchor="middle" pointer-events="none" font-size="8px" fill="#000000" x="48.87852956784599" y="-6.930657598708962" font-family="sans-serif">trek</text></g><g class="relationship" transform="translate(260.50047295259986 11.874786238915345) rotate(533.8834913514332)"><path class="outline" fill="#A5ABB6" stroke="none" d="M 24.018736134675446,6.953439040707552 L 24.277555179777966,5.987513214418485 A 139.96596880767385 139.96596880767385 0 0 0 48.9471295929173,10.27885008333891 L 48.86456463745736,11.275435768631382 A 140.96596880767385 140.96596880767385 0 0 1 24.018736134675446,6.953439040707552 Z M 68.2521580682044,11.54360684165195 L 68.19718916641685,10.545118774704605 A 139.96596880767385 139.96596880767385 0 0 0 92.97601914496174,6.937757032054561 L 92.2800084107492,4.019612234779942 L 99.90102546097128,5.8000894517710915 L 93.90403345724512,10.828616761754054 L 93.20802272303258,7.910471964479434 A 140.96596880767385 140.96596880767385 0 0 1 68.2521580682044,11.54360684165195"/><text text-anchor="middle" pointer-events="none" font-size="8px" fill="#000000" x="58.56066050861041" y="14.243302417379653" transform="rotate(180 58.56066050861041 11.243302417379653)" font-family="sans-serif">trek</text></g><g class="relationship" transform="translate(260.50047295259986 11.874786238915345) rotate(533.8834913514332)"><path class="outline" fill="#A5ABB6" stroke="none" d="M 24.018736134675446,-6.953439040707552 L 24.277555179777966,-5.987513214418485 A 139.96596880767385 139.96596880767385 0 0 1 35.55187523218574,-8.514743665475436 L 35.37360662479641,-9.498725526903513 A 140.96596880767385 140.96596880767385 0 0 0 24.018736134675446,-6.953439040707552 Z M 81.78709655648953,-10.140721421962496 L 81.63611200920423,-9.152185298959864 A 139.96596880767385 139.96596880767385 0 0 1 92.97601914496174,-6.937757032054561 L 92.2800084107492,-4.019612234779942 L 99.90102546097128,-5.8000894517710915 L 93.90403345724512,-10.828616761754054 L 93.20802272303258,-7.910471964479434 A 140.96596880767385 140.96596880767385 0 0 0 81.78709655648953,-10.140721421962496"/><text text-anchor="middle" pointer-events="none" font-size="8px" fill="#000000" x="58.56066050861037" y="-8.243302417379653" transform="rotate(180 58.56066050861037 -11.243302417379653)" font-family="sans-serif">twowheeler</text></g><g class="relationship" transform="translate(174.5004800124644 71.88959797205194) rotate(325.0908654011637)"><path class="outline" fill="#A5ABB6" stroke="none" d="M 24.018736134675446,6.953439040707552 L 24.277555179777966,5.987513214418485 A 101.4424442112105 101.4424442112105 0 0 0 26.013350678252316,6.436216258641551 L 25.77164276953823,7.40656531277881 A 102.4424442112105 102.4424442112105 0 0 1 24.018736134675446,6.953439040707552 Z M 72.05515513228329,8.157725895688898 L 71.84506288414715,7.18004432826875 A 101.4424442112105 101.4424442112105 0 0 0 73.59450487408044,6.787905120490384 L 72.91249114708441,3.86645731568726 L 80.5248853731204,5.683447724966854 L 74.50385651007514,10.683168860227884 L 73.8218427830791,7.7617210554247595 A 102.4424442112105 102.4424442112105 0 0 1 72.05515513228329,8.157725895688898"/><text text-anchor="middle" pointer-events="none" font-size="8px" fill="#000000" x="48.878529567846" y="12.930657598708962" font-family="sans-serif">twowheeler</text></g><g class="relationship" transform="translate(174.5004800124644 71.88959797205194) rotate(273.83223816938806)"><path class="outline" fill="#A5ABB6" stroke="none" d="M 24.018736134675446,-6.953439040707552 L 24.277555179777966,-5.987513214418485 A 152.26817055316312 152.26817055316312 0 0 1 52.05182579847206,-10.730703726430704 L 51.97541040685664,-11.72777979570742 A 153.26817055316312 153.26817055316312 0 0 0 24.018736134675446,-6.953439040707552 Z M 71.35999656483341,-11.983762842170876 L 71.30993699372164,-10.98501660846577 A 152.26817055316312 152.26817055316312 0 0 1 99.19977297512858,-6.976898151644053 L 98.50010642306593,-4.059627729498591 L 106.12334838547844,-5.830554600522108 L 100.13266171121212,-10.866592047838001 L 99.43299515914947,-7.94932162569254 A 153.26817055316312 153.26817055316312 0 0 0 71.35999656483341,-11.983762842170876"/><text text-anchor="middle" pointer-events="none" font-size="8px" fill="#000000" x="61.670254318775584" y="-8.66260680511661" font-family="sans-serif">trek</text></g><g class="relationship" transform="translate(183.21807316715984 -58.252689663129935) rotate(402.22118031581437)"><path class="outline" fill="#A5ABB6" stroke="none" d="M 21.40063509461097,12.933012701892217 L 21.90063509461097,12.06698729810778 A 56.73255805326236 56.73255805326236 0 0 0 38.96192439049115,18.52993788216201 L 38.76265627851676,19.509882890593687 A 57.73255805326236 57.73255805326236 0 0 1 21.40063509461097,12.933012701892217 Z M 58.16514251781076,20.12488980825946 L 58.02833533893464,19.134292112013426 A 56.73255805326236 56.73255805326236 0 0 0 75.46468065045832,13.764824273675197 L 74.13223060446042,11.076966971860205 L 81.95842269569296,11.103750383315907 L 77.24128071178886,17.34863400942852 L 75.90883066579096,14.660776707613527 A 57.73255805326236 57.73255805326236 0 0 1 58.16514251781076,20.12488980825946"/><text text-anchor="middle" pointer-events="none" font-size="8px" fill="#000000" x="48.453705766789845" y="23.13897914257987" font-family="sans-serif">trek</text></g><g class="relationship" transform="translate(183.21807316715984 -58.252689663129935) rotate(402.22118031581437)"><path class="outline" fill="#A5ABB6" stroke="none" d="M 25 0.5 L 37.67275739707561 0.5 L 37.67275739707561 -0.5 L 25 -0.5 Z M 59.68447614707561 0.5 L 72.35723354415121 0.5 L 72.35723354415121 3.5 L 79.35723354415121 0 L 72.35723354415121 -3.5 L 72.35723354415121 -0.5 L 59.68447614707561 -0.5 Z"/><text text-anchor="middle" pointer-events="none" font-size="8px" fill="#000000" x="48.67861677207561" y="3" font-family="sans-serif">road</text></g><g class="relationship" transform="translate(183.21807316715984 -58.252689663129935) rotate(402.22118031581437)"><path class="outline" fill="#A5ABB6" stroke="none" d="M 21.40063509461097,-12.933012701892217 L 21.90063509461097,-12.06698729810778 A 56.73255805326236 56.73255805326236 0 0 1 26.224669887038697,-14.321468392203528 L 25.800887758060277,-15.22723254868054 A 57.73255805326236 57.73255805326236 0 0 0 21.40063509461097,-12.933012701892217 Z M 71.37211589059335,-16.67171859043706 L 71.00654744046716,-15.74093413189022 A 56.73255805326236 56.73255805326236 0 0 1 75.46468065045832,-13.764824273675197 L 74.13223060446042,-11.076966971860205 L 81.95842269569296,-11.103750383315907 L 77.24128071178886,-17.34863400942852 L 75.90883066579096,-14.660776707613527 A 57.73255805326236 57.73255805326236 0 0 0 71.37211589059335,-16.67171859043706"/><text text-anchor="middle" pointer-events="none" font-size="8px" fill="#000000" x="48.453705766789845" y="-17.13897914257987" font-family="sans-serif">twowheeler</text></g><g class="relationship" transform="translate(183.21807316715984 -58.252689663129935) rotate(188.12807193347783)"><path class="outline" fill="#A5ABB6" stroke="none" d="M 25 0.5 L 41.779122023572725 0.5 L 41.779122023572725 -0.5 L 25 -0.5 Z M 61.115059523572725 0.5 L 77.89418154714545 0.5 L 77.89418154714545 3.5 L 84.89418154714545 0 L 77.89418154714545 -3.5 L 77.89418154714545 -0.5 L 61.115059523572725 -0.5 Z"/><text text-anchor="middle" pointer-events="none" font-size="8px" fill="#000000" x="51.447090773572725" y="3" transform="rotate(180 51.447090773572725 0)" font-family="sans-serif">trek</text></g><g class="relationship" transform="translate(74.42783310835796 -73.790218612909) rotate(417.68405869856383)"><path class="outline" fill="#A5ABB6" stroke="none" d="M 25 0.5 L 45.34526187446095 0.5 L 45.34526187446095 -0.5 L 25 -0.5 Z M 64.68119937446096 0.5 L 85.0264612489219 0.5 L 85.0264612489219 3.5 L 92.0264612489219 0 L 85.0264612489219 -3.5 L 85.0264612489219 -0.5 L 64.68119937446096 -0.5 Z"/><text text-anchor="middle" pointer-events="none" font-size="8px" fill="#000000" x="55.01323062446095" y="3" font-family="sans-serif">trek</text></g><g class="relationship" transform="translate(174.5004800124644 71.88959797205194) rotate(273.83223816938806)"><path class="outline" fill="#A5ABB6" stroke="none" d="M 24.018736134675446,6.953439040707552 L 24.277555179777966,5.987513214418485 A 152.26817055316312 152.26817055316312 0 0 0 38.63484275648635,9.100837981583254 L 38.47031319765369,10.087210134611865 A 153.26817055316312 153.26817055316312 0 0 1 24.018736134675446,6.953439040707552 Z M 84.90370593295088,10.70038604835841 L 84.7652802691322,9.710013221794412 A 152.26817055316312 152.26817055316312 0 0 0 99.19977297512858,6.976898151644053 L 98.50010642306593,4.059627729498591 L 106.12334838547844,5.830554600522108 L 100.13266171121212,10.866592047838001 L 99.43299515914947,7.94932162569254 A 153.26817055316312 153.26817055316312 0 0 1 84.90370593295088,10.70038604835841"/><text text-anchor="middle" pointer-events="none" font-size="8px" fill="#000000" x="61.6702543187756" y="14.66260680511661" font-family="sans-serif">twowheeler</text></g><g class="relationship" transform="translate(53.38610063992282 131.0946388728974) rotate(333.94896112257595)"><path class="outline" fill="#A5ABB6" stroke="none" d="M 24.018736134675446,6.953439040707552 L 24.277555179777966,5.987513214418485 A 160.91532706138585 160.91532706138585 0 0 0 40.80900813444253,9.49832709563438 L 40.65292295103336,10.48607069370027 A 161.91532706138585 161.91532706138585 0 0 1 24.018736134675446,6.953439040707552 Z M 87.09713769306279,11.080428425912316 L 86.9663802681473,10.089014034333559 A 160.91532706138585 160.91532706138585 0 0 0 103.58226215689534,7.002394530734613 L 102.88021425930077,4.085696269089601 L 110.50489941699948,5.850399146621446 L 104.51832602035478,10.891325546261298 L 103.81627812276021,7.974627284616285 A 161.91532706138585 161.91532706138585 0 0 1 87.09713769306279,11.080428425912316"/><text text-anchor="middle" pointer-events="none" font-size="8px" fill="#000000" x="63.860005023896925" y="14.957354204324048" font-family="sans-serif">twowheeler</text></g><g class="relationship" transform="translate(53.38610063992282 131.0946388728974) rotate(526.6605318202579)"><path class="outline" fill="#A5ABB6" stroke="none" d="M 25 0.5 L 40.85362940615031 0.5 L 40.85362940615031 -0.5 L 25 -0.5 Z M 60.18956690615031 0.5 L 76.04319631230062 0.5 L 76.04319631230062 3.5 L 83.04319631230062 0 L 76.04319631230062 -3.5 L 76.04319631230062 -0.5 L 60.18956690615031 -0.5 Z"/><text text-anchor="middle" pointer-events="none" font-size="8px" fill="#000000" x="50.52159815615031" y="3" transform="rotate(180 50.52159815615031 0)" font-family="sans-serif">trek</text></g><g class="relationship" transform="translate(-51.74210884165532 156.02237123217452) rotate(391.240368184114)"><path class="outline" fill="#A5ABB6" stroke="none" d="M 21.40063509461097,-12.933012701892217 L 21.90063509461097,-12.06698729810778 A 85.54871982261865 85.54871982261865 0 0 1 52.937774872316645,-22.719348459655677 L 52.80057562307083,-23.709891929679273 A 86.54871982261865 86.54871982261865 0 0 0 21.40063509461097,-12.933012701892217 Z M 72.20177527670911,-24.20043501697708 L 72.1148094580787,-23.204223720920893 A 85.54871982261865 85.54871982261865 0 0 1 103.65061910907184,-14.133967189089992 L 102.28383217699505,-11.463406670714853 L 110.1097248072933,-11.389891100639982 L 105.47300168517424,-17.69471454692351 L 104.10621475309745,-15.024154028548372 A 86.54871982261865 86.54871982261865 0 0 0 72.20177527670911,-24.20043501697708"/><text text-anchor="middle" pointer-events="none" font-size="8px" fill="#000000" x="62.5000202871529" y="-21.000850678947202" font-family="sans-serif">trek</text></g><g class="relationship" transform="translate(61.429326192691306 224.67045617350328) rotate(325.5549437517296)"><path class="outline" fill="#A5ABB6" stroke="none" d="M 21.40063509461097,12.933012701892217 L 21.90063509461097,12.06698729810778 A 67.99339977941794 67.99339977941794 0 0 0 44.39448976186012,20.196310034908734 L 44.22531385273105,21.181895907255907 A 68.99339977941794 68.99339977941794 0 0 1 21.40063509461097,12.933012701892217 Z M 63.629717706011164,21.741705882272655 L 63.517643467802685,20.748006045737498 A 67.99339977941794 67.99339977941794 0 0 0 86.44275185875782,13.929003830357845 L 85.09502912507195,11.24877185660888 L 92.92124691978638,11.231022780715634 L 88.23971550367231,17.502646462023133 L 86.89199276998644,14.822414488274168 A 68.99339977941794 68.99339977941794 0 0 1 63.629717706011164,21.741705882272655"/><text text-anchor="middle" pointer-events="none" font-size="8px" fill="#000000" x="53.92214718286529" y="24.64788978094569" font-family="sans-serif">trek</text></g><g class="relationship" transform="translate(61.429326192691306 224.67045617350328) rotate(325.5549437517296)"><path class="outline" fill="#A5ABB6" stroke="none" d="M 25 0.5 L 43.12239730884723 0.5 L 43.12239730884723 -0.5 L 25 -0.5 Z M 65.13411605884724 0.5 L 83.25651336769447 0.5 L 83.25651336769447 3.5 L 90.25651336769447 0 L 83.25651336769447 -3.5 L 83.25651336769447 -0.5 L 65.13411605884724 -0.5 Z"/><text text-anchor="middle" pointer-events="none" font-size="8px" fill="#000000" x="54.12825668384723" y="3" font-family="sans-serif">road</text></g><g class="relationship" transform="translate(61.429326192691306 224.67045617350328) rotate(325.5549437517296)"><path class="outline" fill="#A5ABB6" stroke="none" d="M 21.40063509461097,-12.933012701892217 L 21.90063509461097,-12.06698729810778 A 67.99339977941794 67.99339977941794 0 0 1 31.434563814530595,-16.623303984758273 L 31.07478225853912,-17.556340549941197 A 68.99339977941794 68.99339977941794 0 0 0 21.40063509461097,-12.933012701892217 Z M 76.96739502515715,-18.88032569272572 L 76.66200262373611,-17.92809910143859 A 67.99339977941794 67.99339977941794 0 0 1 86.44275185875782,-13.929003830357845 L 85.09502912507195,-11.24877185660888 L 92.92124691978638,-11.231022780715634 L 88.23971550367231,-17.502646462023133 L 86.89199276998644,-14.822414488274168 A 68.99339977941794 68.99339977941794 0 0 0 76.96739502515715,-18.88032569272572"/><text text-anchor="middle" pointer-events="none" font-size="8px" fill="#000000" x="53.92214718286528" y="-18.64788978094569" font-family="sans-serif">twowheeler</text></g><g class="relationship" transform="translate(-51.74210884165532 156.02237123217452) rotate(391.240368184114)"><path class="outline" fill="#A5ABB6" stroke="none" d="M 25 0.5 L 51.676338521876374 0.5 L 51.676338521876374 -0.5 L 25 -0.5 Z M 73.68805727187637 0.5 L 100.36439579375275 0.5 L 100.36439579375275 3.5 L 107.36439579375275 0 L 100.36439579375275 -3.5 L 100.36439579375275 -0.5 L 73.68805727187637 -0.5 Z"/><text text-anchor="middle" pointer-events="none" font-size="8px" fill="#000000" x="62.682197896876374" y="3" font-family="sans-serif">road</text></g><g class="relationship" transform="translate(-51.74210884165532 156.02237123217452) rotate(391.240368184114)"><path class="outline" fill="#A5ABB6" stroke="none" d="M 21.40063509461097,12.933012701892217 L 21.90063509461097,12.06698729810778 A 85.54871982261865 85.54871982261865 0 0 0 39.78045193090374,19.826095950490583 L 39.489453501860794,20.782819481242555 A 86.54871982261865 86.54871982261865 0 0 1 21.40063509461097,12.933012701892217 Z M 85.64381155289448,21.949793776378854 L 85.40153394798074,20.979586807656574 A 85.54871982261865 85.54871982261865 0 0 0 103.65061910907184,14.133967189089992 L 102.28383217699505,11.463406670714853 L 110.1097248072933,11.389891100639982 L 105.47300168517424,17.69471454692351 L 104.10621475309745,15.024154028548372 A 86.54871982261865 86.54871982261865 0 0 1 85.64381155289448,21.949793776378854"/><text text-anchor="middle" pointer-events="none" font-size="8px" fill="#000000" x="62.50002028715291" y="27.000850678947202" font-family="sans-serif">twowheeler</text></g><g class="relationship" transform="translate(-12.82321926790264 241.0311654927414) rotate(301.0584711371249)"><path class="outline" fill="#A5ABB6" stroke="none" d="M 25 0.5 L 49.66133225727506 0.5 L 49.66133225727506 -0.5 L 25 -0.5 Z M 71.67305100727506 0.5 L 96.33438326455013 0.5 L 96.33438326455013 3.5 L 103.33438326455013 0 L 96.33438326455013 -3.5 L 96.33438326455013 -0.5 L 71.67305100727506 -0.5 Z"/><text text-anchor="middle" pointer-events="none" font-size="8px" fill="#000000" x="60.66719163227506" y="3" font-family="sans-serif">road</text></g><g class="relationship" transform="translate(-12.82321926790264 241.0311654927414) rotate(301.0584711371249)"><path class="outline" fill="#A5ABB6" stroke="none" d="M 21.40063509461097,-12.933012701892217 L 21.90063509461097,-12.06698729810778 A 81.42404760237933 81.42404760237933 0 0 1 50.924222974212675,-22.132435672378875 L 50.780672803645544,-23.122078713343726 A 82.42404760237933 82.42404760237933 0 0 0 21.40063509461097,-12.933012701892217 Z M 70.18292005675255,-23.627358497547974 L 70.0910747594011,-22.63158520941738 A 81.42404760237933 81.42404760237933 0 0 1 99.59922175146127,-14.09043976661818 L 98.23648320143444,-11.417811164610267 L 106.06247824781754,-11.356154583556897 L 101.41620648483037,-17.653944569295398 L 100.05346793480354,-14.981315967287484 A 82.42404760237933 82.42404760237933 0 0 0 70.18292005675255,-23.627358497547974"/><text text-anchor="middle" pointer-events="none" font-size="8px" fill="#000000" x="60.47988866932215" y="-20.447974748657103" font-family="sans-serif">trek</text></g><g class="relationship" transform="translate(-12.82321926790264 241.0311654927414) rotate(245.40065480504006)"><path class="outline" fill="#A5ABB6" stroke="none" d="M 24.018736134675446,-6.953439040707552 L 24.277555179777966,-5.987513214418485 A 78.57130275327182 78.57130275327182 0 0 1 33.62291226334759,-7.892311577232022 L 33.48303431704441,-8.882480330595811 A 79.57130275327182 79.57130275327182 0 0 0 24.018736134675446,-6.953439040707552 Z M 52.88962612271371,-9.2331791695633 L 52.7856147378865,-8.238603062959925 A 78.57130275327182 78.57130275327182 0 0 1 62.193691277226385,-6.672700239562374 L 61.52243907965531,-3.748761032387233 L 69.12809146023022,-5.593768313092369 L 63.08869420732116,-10.571285849129229 L 62.41744200975008,-7.647346641954087 A 79.57130275327182 79.57130275327182 0 0 0 52.88962612271371,-9.2331791695633"/><text text-anchor="middle" pointer-events="none" font-size="8px" fill="#000000" x="43.18463103100311" y="-6.15185762029823" transform="rotate(180 43.18463103100311 -9.15185762029823)" font-family="sans-serif">trek</text></g><g class="relationship" transform="translate(-12.82321926790264 241.0311654927414) rotate(245.40065480504006)"><path class="outline" fill="#A5ABB6" stroke="none" d="M 24.018736134675446,6.953439040707552 L 24.277555179777966,5.987513214418485 A 78.57130275327182 78.57130275327182 0 0 0 32.308187605997354,7.695226248026046 L 32.151576773624065,8.682886638637783 A 79.57130275327182 79.57130275327182 0 0 1 24.018736134675446,6.953439040707552 Z M 54.227425742115464,9.081821942682765 L 54.10660176816238,8.089147994541591 A 78.57130275327182 78.57130275327182 0 0 0 62.193691277226385,6.672700239562374 L 61.52243907965531,3.748761032387233 L 69.12809146023022,5.593768313092369 L 63.08869420732116,10.571285849129229 L 62.41744200975008,7.647346641954087 A 79.57130275327182 79.57130275327182 0 0 1 54.227425742115464,9.081821942682765"/><text text-anchor="middle" pointer-events="none" font-size="8px" fill="#000000" x="43.18463103100312" y="12.15185762029823" transform="rotate(180 43.18463103100312 9.15185762029823)" font-family="sans-serif">road</text></g></g><g class="layer nodes"><g class="node" transform="translate(-12.82321926790264,241.0311654927414)"><circle class="outline" cx="0" cy="0" r="25" fill="#F16667" stroke="#eb2728" stroke-width="2px"/><text text-anchor="middle" pointer-events="none" font-family="sans-serif" dy="1.5625" font-size="25" fill="#FFFFFF"/><text text-anchor="middle" pointer-events="none" x="0" y="5" font-size="10px" fill="#FFFFFF" font-family="sans-serif"> Darjeeling</text></g><g class="node" transform="translate(136.98871697388674,25.11038018411164)"><circle class="outline" cx="0" cy="0" r="25" fill="#8DCC93" stroke="#5db665" stroke-width="2px"/><text text-anchor="middle" pointer-events="none" font-family="sans-serif" dy="1.5625" font-size="25" fill="#2A2C34"/><text text-anchor="middle" pointer-events="none" x="0" y="5" font-size="10px" fill="#2A2C34" font-family="sans-serif"> Sandak…</text></g><g class="node" transform="translate(53.38610063992282,131.0946388728974)"><circle class="outline" cx="0" cy="0" r="25" fill="#F16667" stroke="#eb2728" stroke-width="2px"/><text text-anchor="middle" pointer-events="none" font-family="sans-serif" dy="1.5625" font-size="25" fill="#FFFFFF"/><text text-anchor="middle" pointer-events="none" x="0" y="5" font-size="10px" fill="#FFFFFF" font-family="sans-serif"> Rimbik</text></g><g class="node" transform="translate(156.47779572545468,159.47956483769713)"><circle class="outline" cx="0" cy="0" r="25" fill="#D9C8AE" stroke="#c0a378" stroke-width="2px"/><text text-anchor="middle" pointer-events="none" font-family="sans-serif" dy="1.5625" font-size="25" fill="#2A2C34"/><text text-anchor="middle" pointer-events="none" x="0" y="5" font-size="10px" fill="#2A2C34" font-family="sans-serif"> BhikeBh…</text></g><g class="node" transform="translate(174.5004800124644,71.88959797205194)"><circle class="outline" cx="0" cy="0" r="25" fill="#D9C8AE" stroke="#c0a378" stroke-width="2px"/><text text-anchor="middle" pointer-events="none" font-family="sans-serif" dy="1.5625" font-size="25" fill="#2A2C34"/><text text-anchor="middle" pointer-events="none" x="0" y="5" font-size="10px" fill="#2A2C34" font-family="sans-serif"> Sirikhola</text></g><g class="node" transform="translate(260.50047295259986,11.874786238915345)"><circle class="outline" cx="0" cy="0" r="25" fill="#D9C8AE" stroke="#c0a378" stroke-width="2px"/><text text-anchor="middle" pointer-events="none" font-family="sans-serif" dy="1.5625" font-size="25" fill="#2A2C34"/><text text-anchor="middle" pointer-events="none" x="0" y="5" font-size="10px" fill="#2A2C34" font-family="sans-serif"> Gurdum</text></g><g class="node" transform="translate(183.21807316715984,-58.252689663129935)"><circle class="outline" cx="0" cy="0" r="25" fill="#D9C8AE" stroke="#c0a378" stroke-width="2px"/><text text-anchor="middle" pointer-events="none" font-family="sans-serif" dy="1.5625" font-size="25" fill="#2A2C34"/><text text-anchor="middle" pointer-events="none" x="0" y="5" font-size="10px" fill="#2A2C34" font-family="sans-serif"> Rammam</text></g><g class="node" transform="translate(74.42783310835796,-73.790218612909)"><circle class="outline" cx="0" cy="0" r="25" fill="#8DCC93" stroke="#5db665" stroke-width="2px"/><text text-anchor="middle" pointer-events="none" font-family="sans-serif" dy="1.5625" font-size="25" fill="#2A2C34"/><text text-anchor="middle" pointer-events="none" x="0" y="5" font-size="10px" fill="#2A2C34" font-family="sans-serif"> Sabargr…</text></g><g class="node" transform="translate(-51.74210884165532,156.02237123217452)"><circle class="outline" cx="0" cy="0" r="25" fill="#D9C8AE" stroke="#c0a378" stroke-width="2px"/><text text-anchor="middle" pointer-events="none" font-family="sans-serif" dy="1.5625" font-size="25" fill="#2A2C34"/><text text-anchor="middle" pointer-events="none" x="0" y="5" font-size="10px" fill="#2A2C34" font-family="sans-serif"> Tumbling</text></g><g class="node" transform="translate(61.429326192691306,224.67045617350328)"><circle class="outline" cx="0" cy="0" r="25" fill="#D9C8AE" stroke="#c0a378" stroke-width="2px"/><text text-anchor="middle" pointer-events="none" font-family="sans-serif" dy="1.5625" font-size="25" fill="#2A2C34"/><text text-anchor="middle" pointer-events="none" x="0" y="5" font-size="10px" fill="#2A2C34" font-family="sans-serif"> Gairibus</text></g></g></svg>